<svg xmlns="http://www.w3.org/2000/svg" xmlns:xlink="http://www.w3.org/1999/xlink" viewBox="0 0 137.74 215.97"><defs><style>.cls-1{fill:#eec0c5;}.cls-2{isolation:isolate;}.cls-3{fill:#2f2f2f;}.cls-4{fill:#b33a5d;}.cls-5{fill:#412354;}.cls-6{fill:#f1f1f1;}.cls-7{fill:#e8b87b;}.cls-8{fill:#75b1b9;}.cls-9{fill:#b22961;}.cls-10{fill:#483a87;}.cls-11{fill:#5a3d59;}.cls-12{fill:#674863;}.cls-13{fill:#e7b97b;}.cls-14{clip-path:url(#clip-path);}.cls-15{fill:#826e4f;mix-blend-mode:multiply;opacity:0.29;}</style><clipPath id="clip-path"><path class="cls-1" d="M87.36,115.22a21.55,21.55,0,0,1-3.12-3.44c-.61-1.15-2.61-5.62-1.48-7.67,0,0,3.46,2.48,5.43-.22,2.57-3.52-2.22-14.63-3.86-15.62s-4.93-4.44-9.45-2.49-2.6,16,1.26,17.69c0,0,2.41,8.19.3,10.06,0,0,5.43,4.23,8.2,3.18S87.36,115.22,87.36,115.22Z"/></clipPath></defs><g class="cls-2"><g id="Layer_2" data-name="Layer 2"><g id="OBJECTS"><path class="cls-1" d="M72.22,110.56l-3.79-2.87-16.12-16S45.76,75,46.22,66.18L43.91,67S42,86.84,47.41,94.63c0,0,10.9,17.38,22.32,23.84S72.22,110.56,72.22,110.56Z"/><path class="cls-3" d="M44.31,48.66a.2.2,0,0,1,.28.1,45.11,45.11,0,0,1,2.27,4.73c1.52,3.7,2.09,6.64,1.71,8.73a3.93,3.93,0,0,1-2.08,3,5.36,5.36,0,0,1-4.88.14c-3.41-1.59-6.15-6.52-8.39-11.2a.21.21,0,0,1,.08-.29h0c.09-.05.21,0,.27.13,2.19,4.58,4.86,9.42,8.13,10.94a5,5,0,0,0,4.58-.14,3.56,3.56,0,0,0,1.89-2.72C49,57.7,45,50.27,44.27,49a.22.22,0,0,1,0-.3Z"/><path class="cls-4" d="M11.34,25.93a30.22,30.22,0,0,0-4.47,1.13l-2.66-2L8,22Z"/><polygon class="cls-5" points="26.08 61.45 25.87 63.91 4.21 25.08 7.3 25.26 8.04 21.95 26.08 61.45"/><polygon class="cls-4" points="54.52 50.9 25.87 63.91 8.04 21.95 35.57 9.22 54.52 50.9"/><path class="cls-6" d="M44,48.31c.2-.17.54,0,.76.28a.68.68,0,0,1,0,.87c-.2.16-.54,0-.76-.29S43.79,48.47,44,48.31Z"/><path class="cls-6" d="M33,53.23c.22-.13.55.05.73.39s.16.73-.06.85-.55,0-.73-.4S32.74,53.35,33,53.23Z"/><path class="cls-3" d="M44.31,48.66a.2.2,0,0,1,.28.1,45.11,45.11,0,0,1,2.27,4.73c1.52,3.7,2.09,6.64,1.71,8.73a3.93,3.93,0,0,1-2.08,3,5.36,5.36,0,0,1-4.88.14c-3.41-1.59-6.15-6.52-8.39-11.2a.21.21,0,0,1,.08-.29h0c.09-.05.21,0,.27.13,2.19,4.58,4.86,9.42,8.13,10.94a5,5,0,0,0,4.58-.14,3.56,3.56,0,0,0,1.89-2.72C49,57.7,45,50.27,44.27,49a.22.22,0,0,1,0-.3Z"/><path class="cls-3" d="M42.53,49.94a.21.21,0,0,1,.29,0,33.89,33.89,0,0,1,2.72,3.68c1.88,3,2.73,5.47,2.55,7.48a4.56,4.56,0,0,1-1.81,3.28,6.41,6.41,0,0,1-4.89,1.45c-3.58-.51-6.8-4.25-9.48-7.9a.19.19,0,0,1,0-.28h0a.21.21,0,0,1,.29,0C34.87,61.28,38,65,41.45,65.44A5.9,5.9,0,0,0,46,64.07a4.11,4.11,0,0,0,1.65-3c.39-4.19-4.32-9.86-5.17-10.85a.2.2,0,0,1,0-.29Z"/><path class="cls-7" d="M7.24,38.25A40,40,0,0,0,2.86,40.5L0,39.43l3.54-3.9Z"/><polygon class="cls-8" points="25.43 66.55 25.45 68.84 0 39.43 3.12 38.75 3.54 35.53 25.43 66.55"/><polygon class="cls-7" points="52.99 49.2 25.45 68.84 3.54 35.53 29.99 16.45 52.99 49.2"/><path class="cls-6" d="M42.17,49.71a.56.56,0,0,1,.78,0,.5.5,0,1,1-.78,0Z"/><path class="cls-6" d="M31.56,57.19a.63.63,0,1,1,0,.79A.57.57,0,0,1,31.56,57.19Z"/><path class="cls-3" d="M42.53,49.94a.21.21,0,0,1,.29,0,33.89,33.89,0,0,1,2.72,3.68c1.88,3,2.73,5.47,2.55,7.48a4.56,4.56,0,0,1-1.81,3.28,6.41,6.41,0,0,1-4.89,1.45c-3.58-.51-6.8-4.25-9.48-7.9a.19.19,0,0,1,0-.28h0a.21.21,0,0,1,.29,0C34.87,61.28,38,65,41.45,65.44A5.9,5.9,0,0,0,46,64.07a4.11,4.11,0,0,0,1.65-3c.39-4.19-4.32-9.86-5.17-10.85a.2.2,0,0,1,0-.29Z"/><path class="cls-1" d="M42.06,65.08s4.33-1.89,4.92.82-3,3.5-3.23,2.6A8.57,8.57,0,0,0,42.06,65.08Z"/><path class="cls-1" d="M93.51,107.76l2.6-4L106,83.34s.56-18-2.82-26.1l2.47,0s8.4,18,5.93,27.16c0,0-4.44,20-13,30S93.51,107.76,93.51,107.76Z"/><path class="cls-3" d="M99.07,40.09a.22.22,0,0,0-.23.2,46.47,46.47,0,0,0-.55,5.2c-.19,4,.26,7,1.32,8.81a3.91,3.91,0,0,0,3,2.11,5.38,5.38,0,0,0,4.65-1.51c2.68-2.64,3.61-8.2,4.15-13.35a.22.22,0,0,0-.17-.26h0a.22.22,0,0,0-.21.22c-.53,5.05-1.43,10.5-4,13a5,5,0,0,1-4.35,1.4A3.55,3.55,0,0,1,99.92,54c-2.21-3.85-1-12.18-.7-13.66a.24.24,0,0,0-.15-.27Z"/><path class="cls-5" d="M122.53,7.63a30.27,30.27,0,0,1,4.59-.43L129,4.45l-4.65-1.67Z"/><polygon class="cls-9" points="120.53 46.04 121.56 48.29 128.96 4.45 126.12 5.65 124.31 2.78 120.53 46.04"/><polygon class="cls-5" points="90.21 45.62 121.56 48.29 124.31 2.78 94.11 0 90.21 45.62"/><path class="cls-6" d="M99.26,39.65c-.24-.08-.52.15-.62.52s0,.75.25.83.52-.14.62-.52S99.5,39.74,99.26,39.65Z"/><path class="cls-6" d="M111.3,40.6c-.25-.05-.5.23-.56.62s.1.73.35.77.5-.23.55-.62S111.55,40.64,111.3,40.6Z"/><path class="cls-3" d="M99.07,40.09a.22.22,0,0,0-.23.2,46.47,46.47,0,0,0-.55,5.2c-.19,4,.26,7,1.32,8.81a3.91,3.91,0,0,0,3,2.11,5.38,5.38,0,0,0,4.65-1.51c2.68-2.64,3.61-8.2,4.15-13.35a.22.22,0,0,0-.17-.26h0a.22.22,0,0,0-.21.22c-.53,5.05-1.43,10.5-4,13a5,5,0,0,1-4.35,1.4A3.55,3.55,0,0,1,99.92,54c-2.21-3.85-1-12.18-.7-13.66a.24.24,0,0,0-.15-.27Z"/><path class="cls-3" d="M101.19,40.71a.2.2,0,0,0-.27.11,31.93,31.93,0,0,0-1.34,4.38c-.77,3.41-.74,6.07.11,7.9a4.48,4.48,0,0,0,2.8,2.48,6.36,6.36,0,0,0,5.09-.27c3.2-1.68,5-6.28,6.29-10.61a.2.2,0,0,0-.13-.26h0a.21.21,0,0,0-.26.14c-1.29,4.25-3,8.76-6.09,10.37a5.94,5.94,0,0,1-4.78.24,4.11,4.11,0,0,1-2.55-2.26c-1.77-3.82.77-10.74,1.24-12a.2.2,0,0,0-.11-.26Z"/><path class="cls-8" d="M130.52,17.88a39.34,39.34,0,0,1,4.88.64l2.34-2-4.65-2.48Z"/><polygon class="cls-4" points="122.86 50.62 123.61 52.79 137.74 16.55 134.57 16.96 133.09 14.07 122.86 50.62"/><polygon class="cls-8" points="91.08 43.51 123.61 52.79 133.09 14.07 101.78 4.95 91.08 43.51"/><path class="cls-6" d="M101.45,40.36a.58.58,0,0,0-.73.32.5.5,0,1,0,.87.46A.57.57,0,0,0,101.45,40.36Z"/><path class="cls-6" d="M114,43.86a.63.63,0,1,0,.25.75A.57.57,0,0,0,114,43.86Z"/><path class="cls-3" d="M101.19,40.71a.2.2,0,0,0-.27.11,31.93,31.93,0,0,0-1.34,4.38c-.77,3.41-.74,6.07.11,7.9a4.48,4.48,0,0,0,2.8,2.48,6.36,6.36,0,0,0,5.09-.27c3.2-1.68,5-6.28,6.29-10.61a.2.2,0,0,0-.13-.26h0a.21.21,0,0,0-.26.14c-1.29,4.25-3,8.76-6.09,10.37a5.94,5.94,0,0,1-4.78.24,4.11,4.11,0,0,1-2.55-2.26c-1.77-3.82.77-10.74,1.24-12a.2.2,0,0,0-.11-.26Z"/><path class="cls-1" d="M106.69,54.81s-4.71-.33-4.36,2.42,4,2.29,3.91,1.37A8.84,8.84,0,0,1,106.69,54.81Z"/><path class="cls-10" d="M87.88,191.88s-1.16-2-2.58-.84c-.41.33-1.06,8.91.43,9.2S87.86,192.48,87.88,191.88Z"/><path class="cls-1" d="M93.09,196.43l-4.79-4.18a1.57,1.57,0,0,0-2.31.27h0a1.57,1.57,0,0,0,.12,2l5.25,5.63Z"/><path class="cls-11" d="M102,212.3,89.24,199.71s3.76-6.5,7.41-5.77S101.77,209.24,102,212.3Z"/><path class="cls-12" d="M100.8,163.72S116,205.9,113.49,211s-11.16,2.78-14-.69-13.63-40-13.63-40S93.77,160,100.8,163.72Z"/><path class="cls-10" d="M52.62,184.44s.41-2.29-1.43-2.31c-.52,0-6.53,6.16-5.58,7.34S52.23,184.89,52.62,184.44Z"/><path class="cls-1" d="M53.7,191.28l-1-6.28a1.56,1.56,0,0,0-1.94-1.28h0a1.57,1.57,0,0,0-1.18,1.61L50,193Z"/><path class="cls-11" d="M50.32,209.15l-1.68-17.83s7.06-2.57,9.39.33S52.13,206.67,50.32,209.15Z"/><path class="cls-12" d="M80.61,171.15S65.15,213.22,60,215.53s-10.34-5-10.31-9.54,15.23-39.42,15.23-39.42S77.62,163.79,80.61,171.15Z"/><path class="cls-12" d="M74.65,186.58s6.84-13.45,17.79-.68l-4.31-20.84-12.37,1.8-4.84,16.73Z"/><path class="cls-13" d="M87.28,115.27a12.45,12.45,0,0,1-10.92-1.74L66.88,104l-6.23,11.59s15,20.82,2.48,52.35c0,0,15.39,10.33,25,3.56s12.92-6.65,12.92-6.65-10.88-36.2,1.8-54.42l-7.14-7.79S89.92,113.79,87.28,115.27Z"/><path class="cls-1" d="M87.36,115.22a21.55,21.55,0,0,1-3.12-3.44c-.61-1.15-2.61-5.62-1.48-7.67,0,0,3.46,2.48,5.43-.22,2.57-3.52-2.22-14.63-3.86-15.62s-4.93-4.44-9.45-2.49-2.6,16,1.26,17.69c0,0,2.41,8.19.3,10.06,0,0,5.43,4.23,8.2,3.18S87.36,115.22,87.36,115.22Z"/><g class="cls-14"><path class="cls-15" d="M83.37,105.26l-.61-1.15s-2.52-1.27-3.14-2.43c0,0,1.4,3.32,3.17,3.88S83.37,105.26,83.37,105.26Z"/></g><path class="cls-12" d="M86.5,91.68s3.39-1,2.84-3.06-3.84-1-3.84-1,4.8-2.5,2.83-4.39-7.53.4-7.53.4,1.45-2.32-.14-3.57-8.54,3.12-8.22,7c0,0-6.18.5-2.7,8s6.49,8.55,6.49,8.55A6.57,6.57,0,0,0,77,98.83a1.18,1.18,0,0,1-1.68.09c-.89-.79-1.76-2.65-1.3-3.34s3.27,1.16,3.27,1.16,2-2.44,1.09-4,.48-1.77.48-1.77,4.81,1.48,6.68-.81A5.27,5.27,0,0,1,86.5,91.68Z"/></g></g></g></svg>